<svg width="155" height="48" viewBox="0 0 155 48" fill="none" xmlns="http://www.w3.org/2000/svg">
<path d="M13.976 4.712C13.56 4.712 13.208 4.568 12.92 4.28C12.632 3.992 12.488 3.64 12.488 3.224C12.488 2.808 12.632 2.456 12.92 2.168C13.208 1.88 13.56 1.736 13.976 1.736C14.376 1.736 14.712 1.88 14.984 2.168C15.272 2.456 15.416 2.808 15.416 3.224C15.416 3.64 15.272 3.992 14.984 4.28C14.712 4.568 14.376 4.712 13.976 4.712ZM15.032 6.848V20H12.848V6.848H15.032ZM23.4103 20.216C22.4023 20.216 21.4983 20.048 20.6983 19.712C19.8983 19.36 19.2663 18.88 18.8023 18.272C18.3383 17.648 18.0823 16.936 18.0343 16.136H20.2903C20.3543 16.792 20.6583 17.328 21.2023 17.744C21.7623 18.16 22.4903 18.368 23.3863 18.368C24.2183 18.368 24.8743 18.184 25.3543 17.816C25.8343 17.448 26.0743 16.984 26.0743 16.424C26.0743 15.848 25.8183 15.424 25.3063 15.152C24.7943 14.864 24.0023 14.584 22.9303 14.312C21.9543 14.056 21.1543 13.8 20.5303 13.544C19.9223 13.272 19.3943 12.88 18.9463 12.368C18.5143 11.84 18.2983 11.152 18.2983 10.304C18.2983 9.632 18.4983 9.016 18.8983 8.456C19.2983 7.896 19.8663 7.456 20.6023 7.136C21.3383 6.8 22.1783 6.632 23.1223 6.632C24.5783 6.632 25.7543 7 26.6503 7.736C27.5463 8.472 28.0263 9.48 28.0903 10.76H25.9063C25.8583 10.072 25.5783 9.52 25.0663 9.104C24.5703 8.688 23.8983 8.48 23.0503 8.48C22.2663 8.48 21.6423 8.648 21.1783 8.984C20.7143 9.32 20.4823 9.76 20.4823 10.304C20.4823 10.736 20.6183 11.096 20.8903 11.384C21.1783 11.656 21.5303 11.88 21.9463 12.056C22.3783 12.216 22.9703 12.4 23.7223 12.608C24.6663 12.864 25.4343 13.12 26.0263 13.376C26.6183 13.616 27.1223 13.984 27.5383 14.48C27.9703 14.976 28.1943 15.624 28.2103 16.424C28.2103 17.144 28.0103 17.792 27.6103 18.368C27.2103 18.944 26.6423 19.4 25.9063 19.736C25.1863 20.056 24.3543 20.216 23.4103 20.216ZM30.4773 13.376C30.4773 12.032 30.7493 10.856 31.2933 9.848C31.8373 8.824 32.5813 8.032 33.5253 7.472C34.4853 6.912 35.5493 6.632 36.7173 6.632C37.8693 6.632 38.8693 6.88 39.7173 7.376C40.5653 7.872 41.1973 8.496 41.6133 9.248V6.848H43.8213V20H41.6133V17.552C41.1813 18.32 40.5333 18.96 39.6693 19.472C38.8213 19.968 37.8293 20.216 36.6933 20.216C35.5253 20.216 34.4693 19.928 33.5253 19.352C32.5813 18.776 31.8373 17.968 31.2933 16.928C30.7493 15.888 30.4773 14.704 30.4773 13.376ZM41.6133 13.4C41.6133 12.408 41.4133 11.544 41.0133 10.808C40.6133 10.072 40.0693 9.512 39.3813 9.128C38.7093 8.728 37.9653 8.528 37.1493 8.528C36.3333 8.528 35.5893 8.72 34.9173 9.104C34.2453 9.488 33.7093 10.048 33.3093 10.784C32.9093 11.52 32.7093 12.384 32.7093 13.376C32.7093 14.384 32.9093 15.264 33.3093 16.016C33.7093 16.752 34.2453 17.32 34.9173 17.72C35.5893 18.104 36.3333 18.296 37.1493 18.296C37.9653 18.296 38.7093 18.104 39.3813 17.72C40.0693 17.32 40.6133 16.752 41.0133 16.016C41.4133 15.264 41.6133 14.392 41.6133 13.4ZM46.6961 13.376C46.6961 12.032 46.9681 10.856 47.5121 9.848C48.0561 8.824 48.8001 8.032 49.7441 7.472C50.7041 6.912 51.7761 6.632 52.9601 6.632C53.9841 6.632 54.9361 6.872 55.8161 7.352C56.6961 7.816 57.3681 8.432 57.8321 9.2V2.24H60.0401V20H57.8321V17.528C57.4001 18.312 56.7601 18.96 55.9121 19.472C55.0641 19.968 54.0721 20.216 52.9361 20.216C51.7681 20.216 50.7041 19.928 49.7441 19.352C48.8001 18.776 48.0561 17.968 47.5121 16.928C46.9681 15.888 46.6961 14.704 46.6961 13.376ZM57.8321 13.4C57.8321 12.408 57.6321 11.544 57.2321 10.808C56.8321 10.072 56.2881 9.512 55.6001 9.128C54.9281 8.728 54.1841 8.528 53.3681 8.528C52.5521 8.528 51.8081 8.72 51.1361 9.104C50.4641 9.488 49.9281 10.048 49.5281 10.784C49.1281 11.52 48.9281 12.384 48.9281 13.376C48.9281 14.384 49.1281 15.264 49.5281 16.016C49.9281 16.752 50.4641 17.32 51.1361 17.72C51.8081 18.104 52.5521 18.296 53.3681 18.296C54.1841 18.296 54.9281 18.104 55.6001 17.72C56.2881 17.32 56.8321 16.752 57.2321 16.016C57.6321 15.264 57.8321 14.392 57.8321 13.4ZM69.4668 20.216C68.2348 20.216 67.1148 19.936 66.1068 19.376C65.1148 18.816 64.3308 18.024 63.7548 17C63.1948 15.96 62.9148 14.76 62.9148 13.4C62.9148 12.056 63.2028 10.872 63.7788 9.848C64.3708 8.808 65.1708 8.016 66.1788 7.472C67.1868 6.912 68.3148 6.632 69.5628 6.632C70.8108 6.632 71.9388 6.912 72.9468 7.472C73.9548 8.016 74.7468 8.8 75.3228 9.824C75.9148 10.848 76.2108 12.04 76.2108 13.4C76.2108 14.76 75.9068 15.96 75.2988 17C74.7068 18.024 73.8988 18.816 72.8748 19.376C71.8508 19.936 70.7148 20.216 69.4668 20.216ZM69.4668 18.296C70.2508 18.296 70.9868 18.112 71.6748 17.744C72.3628 17.376 72.9148 16.824 73.3308 16.088C73.7628 15.352 73.9788 14.456 73.9788 13.4C73.9788 12.344 73.7708 11.448 73.3548 10.712C72.9388 9.976 72.3948 9.432 71.7228 9.08C71.0508 8.712 70.3228 8.528 69.5388 8.528C68.7388 8.528 68.0028 8.712 67.3308 9.08C66.6748 9.432 66.1468 9.976 65.7468 10.712C65.3468 11.448 65.1468 12.344 65.1468 13.4C65.1468 14.472 65.3388 15.376 65.7228 16.112C66.1228 16.848 66.6508 17.4 67.3068 17.768C67.9628 18.12 68.6828 18.296 69.4668 18.296ZM81.2664 8.984C81.6504 8.232 82.1944 7.648 82.8984 7.232C83.6184 6.816 84.4904 6.608 85.5144 6.608V8.864H84.9384C82.4904 8.864 81.2664 10.192 81.2664 12.848V20H79.0824V6.848H81.2664V8.984ZM87.2195 13.376C87.2195 12.032 87.4915 10.856 88.0355 9.848C88.5795 8.824 89.3235 8.032 90.2675 7.472C91.2275 6.912 92.2915 6.632 93.4595 6.632C94.6115 6.632 95.6115 6.88 96.4595 7.376C97.3075 7.872 97.9395 8.496 98.3555 9.248V6.848H100.564V20H98.3555V17.552C97.9235 18.32 97.2755 18.96 96.4115 19.472C95.5635 19.968 94.5715 20.216 93.4355 20.216C92.2675 20.216 91.2115 19.928 90.2675 19.352C89.3235 18.776 88.5795 17.968 88.0355 16.928C87.4915 15.888 87.2195 14.704 87.2195 13.376ZM98.3555 13.4C98.3555 12.408 98.1555 11.544 97.7555 10.808C97.3555 10.072 96.8115 9.512 96.1235 9.128C95.4515 8.728 94.7075 8.528 93.8915 8.528C93.0755 8.528 92.3315 8.72 91.6595 9.104C90.9875 9.488 90.4515 10.048 90.0515 10.784C89.6515 11.52 89.4515 12.384 89.4515 13.376C89.4515 14.384 89.6515 15.264 90.0515 16.016C90.4515 16.752 90.9875 17.32 91.6595 17.72C92.3315 18.104 93.0755 18.296 93.8915 18.296C94.7075 18.296 95.4515 18.104 96.1235 17.72C96.8115 17.32 97.3555 16.752 97.7555 16.016C98.1555 15.264 98.3555 14.392 98.3555 13.4ZM17.504 41.216C16.496 41.216 15.592 41.048 14.792 40.712C13.992 40.36 13.36 39.88 12.896 39.272C12.432 38.648 12.176 37.936 12.128 37.136H14.384C14.448 37.792 14.752 38.328 15.296 38.744C15.856 39.16 16.584 39.368 17.48 39.368C18.312 39.368 18.968 39.184 19.448 38.816C19.928 38.448 20.168 37.984 20.168 37.424C20.168 36.848 19.912 36.424 19.4 36.152C18.888 35.864 18.096 35.584 17.024 35.312C16.048 35.056 15.248 34.8 14.624 34.544C14.016 34.272 13.488 33.88 13.04 33.368C12.608 32.84 12.392 32.152 12.392 31.304C12.392 30.632 12.592 30.016 12.992 29.456C13.392 28.896 13.96 28.456 14.696 28.136C15.432 27.8 16.272 27.632 17.216 27.632C18.672 27.632 19.848 28 20.744 28.736C21.64 29.472 22.12 30.48 22.184 31.76H20C19.952 31.072 19.672 30.52 19.16 30.104C18.664 29.688 17.992 29.48 17.144 29.48C16.36 29.48 15.736 29.648 15.272 29.984C14.808 30.32 14.576 30.76 14.576 31.304C14.576 31.736 14.712 32.096 14.984 32.384C15.272 32.656 15.624 32.88 16.04 33.056C16.472 33.216 17.064 33.4 17.816 33.608C18.76 33.864 19.528 34.12 20.12 34.376C20.712 34.616 21.216 34.984 21.632 35.48C22.064 35.976 22.288 36.624 22.304 37.424C22.304 38.144 22.104 38.792 21.704 39.368C21.304 39.944 20.736 40.4 20 40.736C19.28 41.056 18.448 41.216 17.504 41.216ZM28.0511 29.648V37.4C28.0511 38.04 28.1871 38.496 28.4591 38.768C28.7311 39.024 29.2031 39.152 29.8751 39.152H31.4831V41H29.5151C28.2991 41 27.3871 40.72 26.7791 40.16C26.1711 39.6 25.8671 38.68 25.8671 37.4V29.648H24.1631V27.848H25.8671V24.536H28.0511V27.848H31.4831V29.648H28.0511ZM33.3133 34.376C33.3133 33.032 33.5853 31.856 34.1293 30.848C34.6733 29.824 35.4173 29.032 36.3613 28.472C37.3213 27.912 38.3853 27.632 39.5533 27.632C40.7053 27.632 41.7053 27.88 42.5533 28.376C43.4013 28.872 44.0333 29.496 44.4493 30.248V27.848H46.6573V41H44.4493V38.552C44.0173 39.32 43.3693 39.96 42.5053 40.472C41.6573 40.968 40.6653 41.216 39.5293 41.216C38.3613 41.216 37.3053 40.928 36.3613 40.352C35.4173 39.776 34.6733 38.968 34.1293 37.928C33.5853 36.888 33.3133 35.704 33.3133 34.376ZM44.4493 34.4C44.4493 33.408 44.2493 32.544 43.8493 31.808C43.4493 31.072 42.9053 30.512 42.2173 30.128C41.5453 29.728 40.8013 29.528 39.9853 29.528C39.1693 29.528 38.4253 29.72 37.7533 30.104C37.0813 30.488 36.5453 31.048 36.1453 31.784C35.7453 32.52 35.5453 33.384 35.5453 34.376C35.5453 35.384 35.7453 36.264 36.1453 37.016C36.5453 37.752 37.0813 38.32 37.7533 38.72C38.4253 39.104 39.1693 39.296 39.9853 39.296C40.8013 39.296 41.5453 39.104 42.2173 38.72C42.9053 38.32 43.4493 37.752 43.8493 37.016C44.2493 36.264 44.4493 35.392 44.4493 34.4ZM56.756 27.608C58.356 27.608 59.652 28.096 60.644 29.072C61.636 30.032 62.132 31.424 62.132 33.248V41H59.972V33.56C59.972 32.248 59.644 31.248 58.988 30.56C58.332 29.856 57.436 29.504 56.3 29.504C55.148 29.504 54.228 29.864 53.54 30.584C52.868 31.304 52.532 32.352 52.532 33.728V41H50.348V27.848H52.532V29.72C52.964 29.048 53.548 28.528 54.284 28.16C55.036 27.792 55.86 27.608 56.756 27.608ZM71.1236 27.632C72.2596 27.632 73.2516 27.88 74.0996 28.376C74.9636 28.872 75.6036 29.496 76.0196 30.248V27.848H78.2276V41.288C78.2276 42.488 77.9716 43.552 77.4596 44.48C76.9476 45.424 76.2116 46.16 75.2516 46.688C74.3076 47.216 73.2036 47.48 71.9396 47.48C70.2116 47.48 68.7716 47.072 67.6196 46.256C66.4676 45.44 65.7876 44.328 65.5796 42.92H67.7396C67.9796 43.72 68.4756 44.36 69.2276 44.84C69.9796 45.336 70.8836 45.584 71.9396 45.584C73.1396 45.584 74.1156 45.208 74.8676 44.456C75.6356 43.704 76.0196 42.648 76.0196 41.288V38.528C75.5876 39.296 74.9476 39.936 74.0996 40.448C73.2516 40.96 72.2596 41.216 71.1236 41.216C69.9556 41.216 68.8916 40.928 67.9316 40.352C66.9876 39.776 66.2436 38.968 65.6996 37.928C65.1556 36.888 64.8836 35.704 64.8836 34.376C64.8836 33.032 65.1556 31.856 65.6996 30.848C66.2436 29.824 66.9876 29.032 67.9316 28.472C68.8916 27.912 69.9556 27.632 71.1236 27.632ZM76.0196 34.4C76.0196 33.408 75.8196 32.544 75.4196 31.808C75.0196 31.072 74.4756 30.512 73.7876 30.128C73.1156 29.728 72.3716 29.528 71.5556 29.528C70.7396 29.528 69.9956 29.72 69.3236 30.104C68.6516 30.488 68.1156 31.048 67.7156 31.784C67.3156 32.52 67.1156 33.384 67.1156 34.376C67.1156 35.384 67.3156 36.264 67.7156 37.016C68.1156 37.752 68.6516 38.32 69.3236 38.72C69.9956 39.104 70.7396 39.296 71.5556 39.296C72.3716 39.296 73.1156 39.104 73.7876 38.72C74.4756 38.32 75.0196 37.752 75.4196 37.016C75.8196 36.264 76.0196 35.392 76.0196 34.4ZM81.1023 34.376C81.1023 33.032 81.3743 31.856 81.9183 30.848C82.4623 29.824 83.2063 29.032 84.1503 28.472C85.1103 27.912 86.1743 27.632 87.3423 27.632C88.4943 27.632 89.4943 27.88 90.3423 28.376C91.1903 28.872 91.8223 29.496 92.2383 30.248V27.848H94.4463V41H92.2383V38.552C91.8063 39.32 91.1583 39.96 90.2943 40.472C89.4463 40.968 88.4543 41.216 87.3183 41.216C86.1503 41.216 85.0943 40.928 84.1503 40.352C83.2063 39.776 82.4623 38.968 81.9183 37.928C81.3743 36.888 81.1023 35.704 81.1023 34.376ZM92.2383 34.4C92.2383 33.408 92.0383 32.544 91.6383 31.808C91.2383 31.072 90.6943 30.512 90.0063 30.128C89.3343 29.728 88.5903 29.528 87.7743 29.528C86.9583 29.528 86.2143 29.72 85.5423 30.104C84.8703 30.488 84.3343 31.048 83.9343 31.784C83.5343 32.52 83.3343 33.384 83.3343 34.376C83.3343 35.384 83.5343 36.264 83.9343 37.016C84.3343 37.752 84.8703 38.32 85.5423 38.72C86.2143 39.104 86.9583 39.296 87.7743 39.296C88.5903 39.296 89.3343 39.104 90.0063 38.72C90.6943 38.32 91.2383 37.752 91.6383 37.016C92.0383 36.264 92.2383 35.392 92.2383 34.4ZM100.321 29.984C100.705 29.232 101.249 28.648 101.953 28.232C102.673 27.816 103.545 27.608 104.569 27.608V29.864H103.993C101.545 29.864 100.321 31.192 100.321 33.848V41H98.1371V27.848H100.321V29.984ZM109.274 23.24V41H107.09V23.24H109.274ZM114.124 25.712C113.708 25.712 113.356 25.568 113.068 25.28C112.78 24.992 112.636 24.64 112.636 24.224C112.636 23.808 112.78 23.456 113.068 23.168C113.356 22.88 113.708 22.736 114.124 22.736C114.524 22.736 114.86 22.88 115.132 23.168C115.42 23.456 115.564 23.808 115.564 24.224C115.564 24.64 115.42 24.992 115.132 25.28C114.86 25.568 114.524 25.712 114.124 25.712ZM115.18 27.848V41H112.996V27.848H115.18ZM125.311 27.608C126.911 27.608 128.207 28.096 129.199 29.072C130.191 30.032 130.687 31.424 130.687 33.248V41H128.527V33.56C128.527 32.248 128.199 31.248 127.543 30.56C126.887 29.856 125.991 29.504 124.855 29.504C123.703 29.504 122.783 29.864 122.095 30.584C121.423 31.304 121.087 32.352 121.087 33.728V41H118.903V27.848H121.087V29.72C121.519 29.048 122.103 28.528 122.839 28.16C123.591 27.792 124.415 27.608 125.311 27.608Z" fill="white"/>
<line x1="2" x2="2" y2="46" stroke="#5280E2" stroke-width="4"/>
</svg>
