<svg width="46" height="38" viewBox="0 0 46 38" fill="none" xmlns="http://www.w3.org/2000/svg">
<path fill-rule="evenodd" clip-rule="evenodd" d="M0.0833435 4.41667C0.0833435 2.11548 1.94882 0.25 4.25001 0.25H41.75C44.0512 0.25 45.9167 2.11548 45.9167 4.41667V33.5833C45.9167 35.8845 44.0512 37.75 41.75 37.75H4.25001C1.94882 37.75 0.0833435 35.8845 0.0833435 33.5833V4.41667ZM41.75 4.41667H4.25001V33.5833H41.75V4.41667ZM8.91823 11.3942C9.66702 10.5206 10.9822 10.4194 11.8558 11.1682L19.1475 17.4182C19.6093 17.814 19.875 18.3918 19.875 19C19.875 19.6082 19.6093 20.186 19.1475 20.5818L11.8558 26.8318C10.9822 27.5806 9.66702 27.4794 8.91823 26.6058C8.16943 25.7322 8.2706 24.417 9.14419 23.6682L14.5904 19L9.14419 14.3318C8.2706 13.583 8.16943 12.2678 8.91823 11.3942ZM19.875 27.3333C19.875 26.1827 20.8077 25.25 21.9583 25.25H35.5C36.6506 25.25 37.5833 26.1827 37.5833 27.3333C37.5833 28.4839 36.6506 29.4167 35.5 29.4167H21.9583C20.8077 29.4167 19.875 28.4839 19.875 27.3333Z" fill="#15CDCB"/>
</svg>
